<mxfile host="app.diagrams.net" modified="2023-05-05T09:48:04.695Z" agent="Mozilla/5.0 (Windows NT 10.0; Win64; x64) AppleWebKit/537.36 (KHTML, like Gecko) Chrome/112.0.0.0 Safari/537.36" etag="XTs5DMGfy5KynISknSu4" version="21.2.1" type="device">
  <diagram id="EYLsKbg5UcqWic5-Pu-a" name="Page-1">
    <mxGraphModel dx="2263" dy="1898" grid="1" gridSize="10" guides="1" tooltips="1" connect="1" arrows="1" fold="1" page="1" pageScale="1" pageWidth="827" pageHeight="1169" math="0" shadow="0">
      <root>
        <mxCell id="0" />
        <mxCell id="1" parent="0" />
        <mxCell id="1HT-hw9LUTcOWVkIA0JJ-48" style="edgeStyle=orthogonalEdgeStyle;rounded=0;orthogonalLoop=1;jettySize=auto;html=1;entryX=-0.002;entryY=0.38;entryDx=0;entryDy=0;entryPerimeter=0;fontSize=15;startArrow=classic;startFill=1;endArrow=none;endFill=0;exitX=0;exitY=0;exitDx=310;exitDy=205;exitPerimeter=0;" parent="1" source="1HT-hw9LUTcOWVkIA0JJ-1" target="1HT-hw9LUTcOWVkIA0JJ-12" edge="1">
          <mxGeometry relative="1" as="geometry">
            <Array as="points">
              <mxPoint x="250" y="95" />
              <mxPoint x="250" y="193" />
            </Array>
          </mxGeometry>
        </mxCell>
        <mxCell id="y1y8vQ2Wj2qfFEaCNLXs-21" value="&amp;lt;&amp;lt;merges&amp;gt;&amp;gt;" style="edgeLabel;html=1;align=center;verticalAlign=middle;resizable=0;points=[];fontSize=16;" vertex="1" connectable="0" parent="1HT-hw9LUTcOWVkIA0JJ-48">
          <mxGeometry x="0.0723" y="-1" relative="1" as="geometry">
            <mxPoint y="-12" as="offset" />
          </mxGeometry>
        </mxCell>
        <mxCell id="1HT-hw9LUTcOWVkIA0JJ-1" value="" style="shape=folder;fontStyle=1;spacingTop=10;tabWidth=130;tabHeight=40;tabPosition=left;html=1;" parent="1" vertex="1">
          <mxGeometry x="-120" y="-110" width="310" height="260" as="geometry" />
        </mxCell>
        <mxCell id="1HT-hw9LUTcOWVkIA0JJ-43" style="rounded=0;orthogonalLoop=1;jettySize=auto;html=1;fontSize=15;endArrow=classic;endFill=1;startArrow=none;startFill=0;entryX=0;entryY=0;entryDx=0;entryDy=150;entryPerimeter=0;exitX=0;exitY=0;exitDx=310;exitDy=95;exitPerimeter=0;edgeStyle=orthogonalEdgeStyle;" parent="1" target="rTkdYP10bFTZRLMXQ7SC-1" edge="1" source="1HT-hw9LUTcOWVkIA0JJ-1">
          <mxGeometry relative="1" as="geometry">
            <mxPoint x="160" y="80" as="sourcePoint" />
            <mxPoint x="220" y="40" as="targetPoint" />
          </mxGeometry>
        </mxCell>
        <mxCell id="y1y8vQ2Wj2qfFEaCNLXs-22" value="&amp;lt;&amp;lt;imports&amp;gt;&amp;gt;" style="edgeLabel;html=1;align=center;verticalAlign=middle;resizable=0;points=[];fontSize=16;" vertex="1" connectable="0" parent="1HT-hw9LUTcOWVkIA0JJ-43">
          <mxGeometry x="-0.2455" y="-2" relative="1" as="geometry">
            <mxPoint as="offset" />
          </mxGeometry>
        </mxCell>
        <mxCell id="1HT-hw9LUTcOWVkIA0JJ-4" value="&lt;span style=&quot;font-size: 14px;&quot;&gt;&lt;b&gt;&lt;i&gt;Components&lt;/i&gt;&lt;/b&gt;&lt;/span&gt;" style="text;html=1;strokeColor=none;fillColor=none;align=center;verticalAlign=middle;whiteSpace=wrap;rounded=0;" parent="1" vertex="1">
          <mxGeometry x="-120" y="-110" width="130" height="40" as="geometry" />
        </mxCell>
        <mxCell id="1HT-hw9LUTcOWVkIA0JJ-12" value="" style="shape=folder;fontStyle=1;spacingTop=10;tabWidth=100;tabHeight=40;tabPosition=left;html=1;" parent="1" vertex="1">
          <mxGeometry x="329" y="90" width="170" height="270" as="geometry" />
        </mxCell>
        <mxCell id="1HT-hw9LUTcOWVkIA0JJ-13" value="&lt;span style=&quot;font-size: 14px;&quot;&gt;&lt;b&gt;&lt;i&gt;Pages&lt;/i&gt;&lt;/b&gt;&lt;/span&gt;" style="text;html=1;strokeColor=none;fillColor=none;align=center;verticalAlign=middle;whiteSpace=wrap;rounded=0;" parent="1" vertex="1">
          <mxGeometry x="329" y="90" width="100" height="40" as="geometry" />
        </mxCell>
        <mxCell id="1HT-hw9LUTcOWVkIA0JJ-44" style="rounded=0;orthogonalLoop=1;jettySize=auto;html=1;fontSize=15;endArrow=none;endFill=0;startArrow=classic;startFill=1;exitX=0.5;exitY=1;exitDx=0;exitDy=0;exitPerimeter=0;entryX=0;entryY=0;entryDx=135;entryDy=40;entryPerimeter=0;" parent="1" source="rTkdYP10bFTZRLMXQ7SC-1" edge="1" target="1HT-hw9LUTcOWVkIA0JJ-12">
          <mxGeometry relative="1" as="geometry">
            <mxPoint x="410" y="40" as="sourcePoint" />
            <mxPoint x="455" y="80" as="targetPoint" />
          </mxGeometry>
        </mxCell>
        <mxCell id="y1y8vQ2Wj2qfFEaCNLXs-13" value="&amp;lt;&amp;lt;imports&amp;gt;&amp;gt;" style="edgeLabel;html=1;align=center;verticalAlign=middle;resizable=0;points=[];fontSize=16;" vertex="1" connectable="0" parent="1HT-hw9LUTcOWVkIA0JJ-44">
          <mxGeometry x="-0.2837" y="-1" relative="1" as="geometry">
            <mxPoint as="offset" />
          </mxGeometry>
        </mxCell>
        <mxCell id="1HT-hw9LUTcOWVkIA0JJ-50" value="" style="shape=folder;fontStyle=1;spacingTop=10;tabWidth=100;tabHeight=40;tabPosition=left;html=1;" parent="1" vertex="1">
          <mxGeometry x="580" y="90" width="310" height="120" as="geometry" />
        </mxCell>
        <mxCell id="rTkdYP10bFTZRLMXQ7SC-16" style="rounded=0;orthogonalLoop=1;jettySize=auto;html=1;entryX=0;entryY=0;entryDx=330;entryDy=150;entryPerimeter=0;exitX=0.512;exitY=0.334;exitDx=0;exitDy=0;exitPerimeter=0;edgeStyle=orthogonalEdgeStyle;" parent="1" target="rTkdYP10bFTZRLMXQ7SC-1" edge="1" source="1HT-hw9LUTcOWVkIA0JJ-50">
          <mxGeometry relative="1" as="geometry">
            <mxPoint x="740" y="80" as="sourcePoint" />
            <mxPoint x="640" y="10" as="targetPoint" />
          </mxGeometry>
        </mxCell>
        <mxCell id="y1y8vQ2Wj2qfFEaCNLXs-9" value="&amp;lt;&amp;lt;imports&amp;gt;&amp;gt;" style="edgeLabel;html=1;align=center;verticalAlign=middle;resizable=0;points=[];fontSize=16;" vertex="1" connectable="0" parent="rTkdYP10bFTZRLMXQ7SC-16">
          <mxGeometry x="-0.0789" y="5" relative="1" as="geometry">
            <mxPoint as="offset" />
          </mxGeometry>
        </mxCell>
        <mxCell id="1HT-hw9LUTcOWVkIA0JJ-51" value="&lt;span style=&quot;font-size: 14px;&quot;&gt;&lt;b&gt;&lt;i&gt;API&lt;/i&gt;&lt;/b&gt;&lt;/span&gt;" style="text;html=1;strokeColor=none;fillColor=none;align=center;verticalAlign=middle;whiteSpace=wrap;rounded=0;" parent="1" vertex="1">
          <mxGeometry x="580" y="90" width="100" height="40" as="geometry" />
        </mxCell>
        <mxCell id="1HT-hw9LUTcOWVkIA0JJ-60" style="edgeStyle=none;rounded=0;orthogonalLoop=1;jettySize=auto;html=1;exitX=0.75;exitY=1;exitDx=0;exitDy=0;fontSize=15;startArrow=classic;startFill=1;endArrow=classic;endFill=1;" parent="1" edge="1">
          <mxGeometry relative="1" as="geometry">
            <mxPoint x="905" y="250" as="sourcePoint" />
            <mxPoint x="905" y="250" as="targetPoint" />
          </mxGeometry>
        </mxCell>
        <mxCell id="rTkdYP10bFTZRLMXQ7SC-1" value="" style="shape=folder;fontStyle=1;spacingTop=10;tabWidth=130;tabHeight=40;tabPosition=left;html=1;" parent="1" vertex="1">
          <mxGeometry x="300" y="-260" width="330" height="260" as="geometry" />
        </mxCell>
        <mxCell id="rTkdYP10bFTZRLMXQ7SC-2" value="&lt;span style=&quot;font-size: 14px;&quot;&gt;&lt;b&gt;&lt;i&gt;Models&lt;/i&gt;&lt;/b&gt;&lt;/span&gt;" style="text;html=1;strokeColor=none;fillColor=none;align=center;verticalAlign=middle;whiteSpace=wrap;rounded=0;" parent="1" vertex="1">
          <mxGeometry x="300" y="-260" width="130" height="40" as="geometry" />
        </mxCell>
        <mxCell id="y1y8vQ2Wj2qfFEaCNLXs-1" value="&lt;span style=&quot;font-weight: normal;&quot;&gt;&lt;font style=&quot;font-size: 16px;&quot;&gt;ScheduleModels&lt;/font&gt;&lt;/span&gt;" style="shape=folder;fontStyle=1;spacingTop=10;tabWidth=40;tabHeight=14;tabPosition=left;html=1;whiteSpace=wrap;" vertex="1" parent="1">
          <mxGeometry x="320" y="-210" width="140" height="60" as="geometry" />
        </mxCell>
        <mxCell id="y1y8vQ2Wj2qfFEaCNLXs-2" value="&lt;span style=&quot;font-weight: normal;&quot;&gt;&lt;font style=&quot;font-size: 16px;&quot;&gt;TenantModels&lt;/font&gt;&lt;/span&gt;" style="shape=folder;fontStyle=1;spacingTop=10;tabWidth=40;tabHeight=14;tabPosition=left;html=1;whiteSpace=wrap;" vertex="1" parent="1">
          <mxGeometry x="320" y="-140" width="140" height="60" as="geometry" />
        </mxCell>
        <mxCell id="y1y8vQ2Wj2qfFEaCNLXs-3" value="UserModels" style="shape=folder;fontStyle=0;spacingTop=10;tabWidth=40;tabHeight=14;tabPosition=left;html=1;whiteSpace=wrap;fontSize=16;" vertex="1" parent="1">
          <mxGeometry x="320" y="-71.25" width="140" height="60" as="geometry" />
        </mxCell>
        <mxCell id="y1y8vQ2Wj2qfFEaCNLXs-4" value="RuleModels" style="shape=folder;fontStyle=0;spacingTop=10;tabWidth=40;tabHeight=14;tabPosition=left;html=1;whiteSpace=wrap;fontSize=16;" vertex="1" parent="1">
          <mxGeometry x="480" y="-71.25" width="140" height="60" as="geometry" />
        </mxCell>
        <mxCell id="y1y8vQ2Wj2qfFEaCNLXs-5" value="LessonModels" style="shape=folder;fontStyle=0;spacingTop=10;tabWidth=40;tabHeight=14;tabPosition=left;html=1;whiteSpace=wrap;fontSize=16;" vertex="1" parent="1">
          <mxGeometry x="480" y="-140" width="140" height="60" as="geometry" />
        </mxCell>
        <mxCell id="y1y8vQ2Wj2qfFEaCNLXs-6" value="GroupModels" style="shape=folder;fontStyle=0;spacingTop=10;tabWidth=40;tabHeight=14;tabPosition=left;html=1;whiteSpace=wrap;fontSize=16;" vertex="1" parent="1">
          <mxGeometry x="480" y="-210" width="140" height="60" as="geometry" />
        </mxCell>
        <mxCell id="y1y8vQ2Wj2qfFEaCNLXs-7" value="Stores" style="shape=folder;fontStyle=0;spacingTop=10;tabWidth=40;tabHeight=14;tabPosition=left;html=1;whiteSpace=wrap;fontSize=16;" vertex="1" parent="1">
          <mxGeometry x="740" y="140" width="140" height="60" as="geometry" />
        </mxCell>
        <mxCell id="y1y8vQ2Wj2qfFEaCNLXs-8" value="Agent" style="shape=folder;fontStyle=0;spacingTop=10;tabWidth=40;tabHeight=14;tabPosition=left;html=1;whiteSpace=wrap;fontSize=16;" vertex="1" parent="1">
          <mxGeometry x="590" y="140" width="140" height="60" as="geometry" />
        </mxCell>
        <mxCell id="y1y8vQ2Wj2qfFEaCNLXs-10" value="Auth" style="shape=folder;fontStyle=0;spacingTop=10;tabWidth=40;tabHeight=14;tabPosition=left;html=1;whiteSpace=wrap;fontSize=16;" vertex="1" parent="1">
          <mxGeometry x="344" y="140" width="140" height="60" as="geometry" />
        </mxCell>
        <mxCell id="y1y8vQ2Wj2qfFEaCNLXs-11" value="Profiles" style="shape=folder;fontStyle=0;spacingTop=10;tabWidth=40;tabHeight=14;tabPosition=left;html=1;whiteSpace=wrap;fontSize=16;" vertex="1" parent="1">
          <mxGeometry x="344" y="210" width="140" height="60" as="geometry" />
        </mxCell>
        <mxCell id="y1y8vQ2Wj2qfFEaCNLXs-12" value="Schedules" style="shape=folder;fontStyle=0;spacingTop=10;tabWidth=40;tabHeight=14;tabPosition=left;html=1;whiteSpace=wrap;fontSize=16;" vertex="1" parent="1">
          <mxGeometry x="344" y="280" width="140" height="60" as="geometry" />
        </mxCell>
        <mxCell id="y1y8vQ2Wj2qfFEaCNLXs-14" value="Header" style="shape=folder;fontStyle=0;spacingTop=10;tabWidth=40;tabHeight=14;tabPosition=left;html=1;whiteSpace=wrap;fontSize=16;" vertex="1" parent="1">
          <mxGeometry x="40" y="-60" width="140" height="60" as="geometry" />
        </mxCell>
        <mxCell id="y1y8vQ2Wj2qfFEaCNLXs-15" value="Loading" style="shape=folder;fontStyle=0;spacingTop=10;tabWidth=40;tabHeight=14;tabPosition=left;html=1;whiteSpace=wrap;fontSize=16;" vertex="1" parent="1">
          <mxGeometry x="40" y="10" width="140" height="60" as="geometry" />
        </mxCell>
        <mxCell id="y1y8vQ2Wj2qfFEaCNLXs-16" value="Users" style="shape=folder;fontStyle=0;spacingTop=10;tabWidth=40;tabHeight=14;tabPosition=left;html=1;whiteSpace=wrap;fontSize=16;" vertex="1" parent="1">
          <mxGeometry x="40" y="80" width="140" height="60" as="geometry" />
        </mxCell>
        <mxCell id="y1y8vQ2Wj2qfFEaCNLXs-17" value="Routes" style="shape=folder;fontStyle=0;spacingTop=10;tabWidth=40;tabHeight=14;tabPosition=left;html=1;whiteSpace=wrap;fontSize=16;" vertex="1" parent="1">
          <mxGeometry x="-110" y="-60" width="140" height="60" as="geometry" />
        </mxCell>
        <mxCell id="y1y8vQ2Wj2qfFEaCNLXs-18" value="Schedules" style="shape=folder;fontStyle=0;spacingTop=10;tabWidth=40;tabHeight=14;tabPosition=left;html=1;whiteSpace=wrap;fontSize=16;" vertex="1" parent="1">
          <mxGeometry x="-110" y="10" width="140" height="60" as="geometry" />
        </mxCell>
        <mxCell id="y1y8vQ2Wj2qfFEaCNLXs-19" value="Rules" style="shape=folder;fontStyle=0;spacingTop=10;tabWidth=40;tabHeight=14;tabPosition=left;html=1;whiteSpace=wrap;fontSize=16;" vertex="1" parent="1">
          <mxGeometry x="-110" y="80" width="140" height="60" as="geometry" />
        </mxCell>
      </root>
    </mxGraphModel>
  </diagram>
</mxfile>
